<?xml version="1.0" standalone="no"?>
<!DOCTYPE svg PUBLIC "-//W3C//DTD SVG 20010904//EN"
 "http://www.w3.org/TR/2001/REC-SVG-20010904/DTD/svg10.dtd">
<svg version="1.0" xmlns="http://www.w3.org/2000/svg"
 width="261.000000pt" height="261.000000pt" viewBox="0 0 261.000000 261.000000"
 preserveAspectRatio="xMidYMid meet">
<metadata>
Created by potrace 1.14, written by Peter Selinger 2001-2017
</metadata>
<g transform="translate(0.000000,261.000000) scale(0.100000,-0.100000)"
fill="#000000" stroke="none">
<path d="M402 2413 l3 -98 98 -3 97 -3 0 -99 0 -99 -97 -3 -98 -3 -3 -97 -3
-98 -94 0 -94 0 -3 98 -3 97 -103 3 -102 3 0 -396 0 -395 105 0 105 0 0 -105
0 -105 95 0 95 0 0 -95 0 -95 100 0 100 0 0 -100 0 -100 100 0 100 0 0 -105 0
-105 105 0 105 0 0 -95 0 -95 95 0 95 0 0 -100 0 -100 100 0 100 0 0 100 0
100 95 0 95 0 0 100 0 100 100 0 100 0 0 100 0 100 105 0 105 0 0 100 0 100
100 0 100 0 0 95 0 95 95 0 95 0 0 100 0 100 105 0 105 0 0 400 0 400 -105 0
-105 0 0 100 0 100 -95 0 -95 0 0 100 0 100 -300 0 -299 0 -3 -97 -3 -98 -97
-3 -98 -3 0 -99 0 -100 -100 0 -100 0 0 100 0 99 -102 3 -103 3 -3 98 -3 97
-295 0 -295 0 3 -97z"/>
<path d="M210 2210 l0 -100 95 0 95 0 0 100 0 100 -95 0 -95 0 0 -100z"/>
</g>
</svg>
