<svg width="32" height="32" viewBox="0 0 32 32" fill="none" xmlns="http://www.w3.org/2000/svg">
<path fill-rule="evenodd" clip-rule="evenodd" d="M15.3327 11.3335C15.3327 12.5282 14.8834 13.6188 14.1447 14.4442C15.1815 15.1816 15.957 16.2296 16.3592 17.4366C16.7615 18.6437 16.7696 19.9474 16.3824 21.1593C15.9953 22.3713 15.2328 23.4288 14.2053 24.1791C13.1778 24.9295 11.9383 25.3337 10.666 25.3335H4.66602C4.13558 25.3335 3.62687 25.1228 3.2518 24.7477C2.87673 24.3726 2.66602 23.8639 2.66602 23.3335V7.3335C2.66602 6.80306 2.87673 6.29436 3.2518 5.91928C3.62687 5.54421 4.13558 5.3335 4.66602 5.3335H9.99935C11.4138 5.3335 12.7704 5.8954 13.7706 6.89559C14.7708 7.89579 15.3327 9.25234 15.3327 10.6668V11.3335ZM5.33268 13.3335V8.00016H9.99935C10.7066 8.00016 11.3849 8.28111 11.885 8.78121C12.3851 9.28131 12.666 9.95959 12.666 10.6668V11.3335C12.666 11.8639 12.4553 12.3726 12.0802 12.7477C11.7052 13.1228 11.1964 13.3335 10.666 13.3335H5.33268ZM5.33268 16.0002H10.666C11.5501 16.0002 12.3979 16.3514 13.023 16.9765C13.6482 17.6016 13.9994 18.4494 13.9994 19.3335C13.9994 20.2176 13.6482 21.0654 13.023 21.6905C12.3979 22.3156 11.5501 22.6668 10.666 22.6668H5.33268V16.0002Z" fill="#C4B6B6"/>
<path d="M20 7.99984C20 7.64622 20.1405 7.30708 20.3905 7.05703C20.6406 6.80698 20.9797 6.6665 21.3333 6.6665H26C26.3536 6.6665 26.6928 6.80698 26.9428 7.05703C27.1929 7.30708 27.3333 7.64622 27.3333 7.99984C27.3333 8.35346 27.1929 8.6926 26.9428 8.94265C26.6928 9.19269 26.3536 9.33317 26 9.33317H21.3333C20.9797 9.33317 20.6406 9.19269 20.3905 8.94265C20.1405 8.6926 20 8.35346 20 7.99984Z" fill="#C4B6B6"/>
<path fill-rule="evenodd" clip-rule="evenodd" d="M23.666 10.6665C19.878 10.6665 16.666 13.5758 16.666 17.3332V18.6665C16.666 22.4238 19.878 25.3332 23.666 25.3332C25.686 25.3332 27.1487 24.7518 28.1287 24.1198C28.718 23.7412 29.1807 23.2798 29.626 22.7492C29.8198 22.4582 29.8915 22.1027 29.8257 21.7593C29.7599 21.416 29.5619 21.1122 29.2743 20.9134C28.9867 20.7146 28.6325 20.6367 28.2881 20.6965C27.9436 20.7564 27.6364 20.9491 27.4327 21.2332C27.2211 21.488 26.9688 21.706 26.686 21.8785C26.1113 22.2478 25.1447 22.6665 23.666 22.6665C21.1953 22.6665 19.3327 20.7998 19.3327 18.6665H29.3327C29.6863 18.6665 30.0254 18.526 30.2755 18.276C30.5255 18.0259 30.666 17.6868 30.666 17.3332C30.666 13.5758 27.454 10.6665 23.666 10.6665ZM27.75 15.9998C27.1633 14.4785 25.6007 13.3332 23.666 13.3332C21.7313 13.3332 20.1687 14.4785 19.582 15.9998H27.75Z" fill="#C4B6B6"/>
</svg>
