<svg width="32" height="32" viewBox="0 0 32 32" fill="none" xmlns="http://www.w3.org/2000/svg">
<path fill-rule="evenodd" clip-rule="evenodd" d="M4.79467 14.2907C8.25067 14.5774 11.56 13.884 14.3 12.3174C12.9215 10.2698 11.3064 8.39192 9.488 6.72268C8.23517 7.60183 7.17341 8.72564 6.36678 10.0263C5.56015 11.327 5.02535 12.7777 4.79467 14.2907V14.2907ZM8.92533 3.91735C6.81662 5.15145 5.06778 6.91618 3.8528 9.03597C2.63781 11.1558 1.99903 13.5567 2 16C2 23.732 8.268 30 16 30C23.732 30 30 23.732 30 16C30 8.26802 23.732 2.00002 16 2.00002C13.5131 1.99599 11.0704 2.65754 8.92533 3.91602V3.91735ZM11.9733 5.40135C13.6545 7.03464 15.1638 8.83606 16.4773 10.7774C18.1401 9.34275 19.4303 7.52643 20.2373 5.48402C18.8905 4.94193 17.4518 4.66442 16 4.66668C14.6246 4.66515 13.2605 4.91457 11.9747 5.40268L11.9733 5.40135ZM22.588 6.77735C21.5677 9.22712 19.9588 11.3874 17.904 13.0667C18.368 13.8787 18.7987 14.7094 19.1947 15.556C21.7053 14.5787 24.4213 14.128 27.2147 14.3587C26.9939 12.8489 26.4704 11.3992 25.6756 10.0966C24.8808 8.79411 23.831 7.66555 22.5893 6.77869L22.588 6.77735ZM27.2853 17.0414C24.856 16.7934 22.4587 17.1614 20.2293 18.016C21.1509 20.4527 21.7615 22.9959 22.0467 25.5854C23.5164 24.6582 24.7531 23.4054 25.6613 21.9238C26.5694 20.4423 27.1246 18.7718 27.284 17.0414H27.2853ZM19.4773 26.788C19.2811 24.1827 18.7206 21.6177 17.812 19.168C14.988 20.7907 12.564 23.216 10.88 26.1134C12.4667 26.9179 14.221 27.3359 16 27.3334C17.2133 27.3334 18.3827 27.1427 19.4787 26.7894L19.4773 26.788ZM8.65733 24.6334C10.6093 21.3347 13.444 18.5374 16.78 16.688C16.446 15.9741 16.0858 15.2727 15.7 14.5854C12.4813 16.4414 8.63333 17.2574 4.70533 16.9574C4.9559 19.9379 6.37687 22.6979 8.65733 24.6334V24.6334Z" fill="#C4B6B6"/>
</svg>
