<svg width="32" height="32" viewBox="0 0 32 32" fill="none" xmlns="http://www.w3.org/2000/svg">
<path fill-rule="evenodd" clip-rule="evenodd" d="M2.66602 7.99984C2.66602 6.58535 3.22792 5.2288 4.22811 4.2286C5.22831 3.22841 6.58486 2.6665 7.99935 2.6665H23.9993C25.4138 2.6665 26.7704 3.22841 27.7706 4.2286C28.7708 5.2288 29.3327 6.58535 29.3327 7.99984V23.9998C29.3327 25.4143 28.7708 26.7709 27.7706 27.7711C26.7704 28.7713 25.4138 29.3332 23.9993 29.3332H7.99935C6.58486 29.3332 5.22831 28.7713 4.22811 27.7711C3.22792 26.7709 2.66602 25.4143 2.66602 23.9998V7.99984ZM7.99935 5.33317C7.2921 5.33317 6.61383 5.61412 6.11373 6.11422C5.61363 6.61432 5.33268 7.29259 5.33268 7.99984V23.9998C5.33268 24.7071 5.61363 25.3854 6.11373 25.8855C6.61383 26.3856 7.2921 26.6665 7.99935 26.6665H15.9993V17.3332H14.666C14.3124 17.3332 13.9733 17.1927 13.7232 16.9426C13.4732 16.6926 13.3327 16.3535 13.3327 15.9998C13.3327 15.6462 13.4732 15.3071 13.7232 15.057C13.9733 14.807 14.3124 14.6665 14.666 14.6665H15.9993V12.6665C15.9993 11.4288 16.491 10.2418 17.3662 9.36667C18.2414 8.4915 19.4283 7.99984 20.666 7.99984H21.466C21.8196 7.99984 22.1588 8.14031 22.4088 8.39036C22.6589 8.64041 22.7993 8.97955 22.7993 9.33317C22.7993 9.68679 22.6589 10.0259 22.4088 10.276C22.1588 10.526 21.8196 10.6665 21.466 10.6665H20.666C20.4034 10.6665 20.1433 10.7182 19.9006 10.8187C19.658 10.9193 19.4375 11.0666 19.2518 11.2523C19.0661 11.438 18.9188 11.6585 18.8183 11.9011C18.7177 12.1438 18.666 12.4039 18.666 12.6665V14.6665H21.466C21.8196 14.6665 22.1588 14.807 22.4088 15.057C22.6589 15.3071 22.7993 15.6462 22.7993 15.9998C22.7993 16.3535 22.6589 16.6926 22.4088 16.9426C22.1588 17.1927 21.8196 17.3332 21.466 17.3332H18.666V26.6665H23.9993C24.7066 26.6665 25.3849 26.3856 25.885 25.8855C26.3851 25.3854 26.666 24.7071 26.666 23.9998V7.99984C26.666 7.29259 26.3851 6.61432 25.885 6.11422C25.3849 5.61412 24.7066 5.33317 23.9993 5.33317H7.99935Z" fill="#C4B6B6"/>
</svg>
