<svg width="32" height="32" viewBox="0 0 32 32" fill="none" xmlns="http://www.w3.org/2000/svg">
<path fill-rule="evenodd" clip-rule="evenodd" d="M7.99935 2.6665C6.58486 2.6665 5.22831 3.22841 4.22811 4.2286C3.22792 5.2288 2.66602 6.58535 2.66602 7.99984V23.9998C2.66602 25.4143 3.22792 26.7709 4.22811 27.7711C5.22831 28.7713 6.58486 29.3332 7.99935 29.3332H23.9993C25.4138 29.3332 26.7704 28.7713 27.7706 27.7711C28.7708 26.7709 29.3327 25.4143 29.3327 23.9998V7.99984C29.3327 6.58535 28.7708 5.2288 27.7706 4.2286C26.7704 3.22841 25.4138 2.6665 23.9993 2.6665H7.99935ZM5.33268 7.99984C5.33268 7.29259 5.61363 6.61432 6.11373 6.11422C6.61383 5.61412 7.2921 5.33317 7.99935 5.33317H23.9993C24.7066 5.33317 25.3849 5.61412 25.885 6.11422C26.3851 6.61432 26.666 7.29259 26.666 7.99984V23.9998C26.666 24.7071 26.3851 25.3854 25.885 25.8855C25.3849 26.3856 24.7066 26.6665 23.9993 26.6665H7.99935C7.2921 26.6665 6.61383 26.3856 6.11373 25.8855C5.61363 25.3854 5.33268 24.7071 5.33268 23.9998V7.99984ZM11.9993 14.6665C11.9993 14.3129 11.8589 13.9737 11.6088 13.7237C11.3588 13.4736 11.0196 13.3332 10.666 13.3332C10.3124 13.3332 9.97325 13.4736 9.72321 13.7237C9.47316 13.9737 9.33268 14.3129 9.33268 14.6665V22.6665C9.33268 23.0201 9.47316 23.3593 9.72321 23.6093C9.97325 23.8594 10.3124 23.9998 10.666 23.9998C11.0196 23.9998 11.3588 23.8594 11.6088 23.6093C11.8589 23.3593 11.9993 23.0201 11.9993 22.6665V14.6665ZM12.666 9.99984C12.666 10.5303 12.4553 11.039 12.0802 11.4141C11.7052 11.7891 11.1964 11.9998 10.666 11.9998C10.1356 11.9998 9.62687 11.7891 9.2518 11.4141C8.87673 11.039 8.66602 10.5303 8.66602 9.99984C8.66602 9.4694 8.87673 8.9607 9.2518 8.58562C9.62687 8.21055 10.1356 7.99984 10.666 7.99984C11.1964 7.99984 11.7052 8.21055 12.0802 8.58562C12.4553 8.9607 12.666 9.4694 12.666 9.99984V9.99984ZM15.9993 13.3332C16.4527 13.3332 16.8527 13.5598 17.0927 13.9038C17.7799 13.5293 18.55 13.3331 19.3327 13.3332C22.2127 13.3332 23.9993 15.9012 23.9993 18.0945V22.6665C23.9993 23.0201 23.8589 23.3593 23.6088 23.6093C23.3588 23.8594 23.0196 23.9998 22.666 23.9998C22.3124 23.9998 21.9733 23.8594 21.7232 23.6093C21.4732 23.3593 21.3327 23.0201 21.3327 22.6665V18.0932C21.3327 17.0692 20.4527 15.9985 19.3327 15.9985C18.634 15.9985 17.862 16.3785 17.3327 17.2825V22.6665C17.3327 23.0201 17.1922 23.3593 16.9422 23.6093C16.6921 23.8594 16.353 23.9998 15.9993 23.9998C15.6457 23.9998 15.3066 23.8594 15.0565 23.6093C14.8065 23.3593 14.666 23.0201 14.666 22.6665V14.6665C14.666 14.3129 14.8065 13.9737 15.0565 13.7237C15.3066 13.4736 15.6457 13.3332 15.9993 13.3332V13.3332Z" fill="#C4B6B6"/>
</svg>
