<svg width="135" height="75" viewBox="0 0 135 75" fill="none" xmlns="http://www.w3.org/2000/svg">
<g clip-path="url(#clip0_10_1320)">
<path d="M19.0789 10.9756H16.7266V13.4582H19.0789V10.9756Z" fill="black"/>
<path d="M23.7848 10.9755H26.1372V8.62354H23.7848H21.4324H19.0801V10.9755H21.4324H23.7848Z" fill="black"/>
<path d="M28.6199 10.9756H26.2676V13.4582H28.6199V10.9756Z" fill="black"/>
<path d="M30.9715 13.458H28.6191V15.8099H30.9715V13.458Z" fill="black"/>
<path d="M33.325 10.9756H30.9727V13.4582H33.325V10.9756Z" fill="black"/>
<path d="M38.1597 8.62354H35.6766H35.4152H33.3242V10.9755H35.4152H35.6766H38.1597H40.512V8.62354H38.1597Z" fill="black"/>
<path d="M42.8641 10.9756H40.5117V13.4582H42.8641V10.9756Z" fill="black"/>
<path d="M42.8652 13.458V15.8099V18.1618V22.9963H45.3483V18.1618V15.8099V13.458H42.8652Z" fill="black"/>
<path d="M42.8641 22.9966H40.5117V25.3485H42.8641V22.9966Z" fill="black"/>
<path d="M40.5125 25.3481H38.1602V27.7001H40.5125V25.3481Z" fill="black"/>
<path d="M38.1608 27.7002H35.6777V30.0521H38.1608V27.7002Z" fill="black"/>
<path d="M35.6766 30.0522H33.3242V32.4042H35.6766V30.0522Z" fill="black"/>
<path d="M33.325 32.5347H30.9727V34.8866H33.325V32.5347Z" fill="black"/>
<path d="M30.9715 34.8867H28.6191V37.2386H30.9715V34.8867Z" fill="black"/>
<path d="M28.6199 32.5347H26.2676V34.8866H28.6199V32.5347Z" fill="black"/>
<path d="M26.2682 30.0522H23.7852V32.5348H26.2682V30.0522Z" fill="black"/>
<path d="M23.784 27.7002H21.4316V30.0521H23.784V27.7002Z" fill="black"/>
<path d="M21.4324 25.3481H19.0801V27.7001H21.4324V25.3481Z" fill="black"/>
<path d="M19.0789 22.9966H16.7266V25.3485H19.0789V22.9966Z" fill="black"/>
<path d="M16.7272 20.5138V18.1618V15.8099V13.458H14.2441V15.8099V18.1618V20.5138V22.8657H16.7272V20.5138Z" fill="black"/>
<path d="M19.0789 13.458H16.7266V15.8099H19.0789V13.458Z" fill="white"/>
<path d="M40.5117 13.4582V10.9756H38.1593H35.6762H35.1535H33.3239V13.4582H30.9715V15.8101H28.6191V13.4582H26.2667V10.9756H23.7837H21.4313V13.4582H19.0789V15.8101H16.7266V22.9965H19.0789V25.3484H21.4313V27.7003H23.7837V30.0522H26.2667V32.5348H28.6191V34.8867H30.9715V32.5348H33.3239V30.0522H35.6762V27.7003H38.1593V25.3484H40.5117V22.9965H42.864V13.4582H40.5117Z" fill="#CE0002"/>
<path d="M21.4324 10.9756H19.0801V13.3275H21.4324V10.9756Z" fill="white"/>
<path d="M78.6734 13.458V10.9755H76.3211V8.62354H73.9687H71.6163H69.2639V10.9755H66.7809V13.458H64.4285V10.9755H61.9455V8.62354H59.5931H57.2407H54.8883V10.9755H57.2407V13.458H54.8883V15.8099H52.536V13.458H54.8883V10.9755H52.536V13.458H50.1836V15.8099V18.1619V20.5138V22.8657H52.536V25.3483H54.8883V22.8657H52.536V20.5138H54.8883H57.2407H59.5931H61.9455H64.4285H66.7809H69.1333H71.6163H73.9687H76.3211H78.6734V22.8657H76.3211V25.3483H78.6734V22.8657H81.1565V20.5138V18.1619V15.8099V13.458H78.6734Z" fill="black"/>
<path d="M76.3211 25.3481H73.9688V27.7001H76.3211V25.3481Z" fill="black"/>
<path d="M73.9696 27.7002H71.6172V30.0521H73.9696V27.7002Z" fill="black"/>
<path d="M71.6159 30.0522H69.1328V32.4042H71.6159V30.0522Z" fill="black"/>
<path d="M69.1336 32.4038H66.7812V34.8864H69.1336V32.4038Z" fill="black"/>
<path d="M66.7801 34.8867H64.4277V37.2386H66.7801V34.8867Z" fill="black"/>
<path d="M64.4284 32.4038H61.9453V34.8864H64.4284V32.4038Z" fill="black"/>
<path d="M61.9461 30.0522H59.5938V32.4042H61.9461V30.0522Z" fill="black"/>
<path d="M59.5926 27.7002H57.2402V30.0521H59.5926V27.7002Z" fill="black"/>
<path d="M57.241 25.3481H54.8887V27.7001H57.241V25.3481Z" fill="black"/>
<path d="M54.8875 13.458H52.5352V15.8099H54.8875V13.458Z" fill="white"/>
<path d="M76.3202 20.5137H73.9679H71.6155H69.1324H66.7801H64.4277H61.9446H59.5923H57.2399H54.8875H52.5352V22.8656H54.8875V25.3482H57.2399V27.7001H59.5923V30.052H61.9446V32.4039H64.4277V34.8865H66.7801V32.4039H69.1324V30.052H71.6155V27.7001H73.9679V25.3482H76.3202V22.8656H78.6726V20.5137H76.3202Z" fill="#CE0002"/>
<path d="M57.241 10.9756H54.8887V13.3275H57.241V10.9756Z" fill="white"/>
<path d="M90.6981 11.106H88.3457V13.4579H90.6981V11.106Z" fill="black"/>
<path d="M114.482 13.458V10.9755H112.13V8.62354H109.777H107.425H105.073V10.9755H102.589V13.458H100.237V10.9755H97.8847V8.7542H95.4017H95.0096H93.0493H90.6969V11.1061H93.0493V13.458H90.6969V15.8099H88.3446V13.458H85.9922V15.8099V18.1619V20.5138V22.8657H88.3446V25.3483H90.6969V27.7002H93.0493V30.0521H94.6175H95.4017H95.5324V32.404H97.8847V34.8866H100.237V37.2385H102.589V34.8866H100.237V32.404H97.8847V30.0521H100.237H102.589H104.942V32.404H102.589V34.8866H104.942V32.404H107.425V30.0521H109.777V27.7002H112.13V25.3483H114.482V22.8657H116.965V20.5138V18.1619V15.8099V13.458H114.482Z" fill="black"/>
<path d="M90.6961 13.458H88.3438V15.8099H90.6961V13.458Z" fill="white"/>
<path d="M102.589 32.4038H100.236V34.8864H102.589V32.4038Z" fill="#CE0002"/>
<path d="M100.237 30.0522H97.8848V32.4042H100.237V30.0522Z" fill="#CE0002"/>
<path d="M102.589 30.0522H100.236V32.4042H102.589V30.0522Z" fill="#CE0002"/>
<path d="M104.94 30.0522H102.588V32.4042H104.94V30.0522Z" fill="#CE0002"/>
<path d="M93.0477 11.106H90.6953V13.4579H93.0477V11.106Z" fill="white"/>
<path d="M13.5921 57.3607V55.9234H12.1545V57.3607V58.798V60.2352V61.6725V63.1098V64.5471V65.9844H13.5921V67.4216H12.1545H10.717H9.27942H7.84186V65.9844H9.27942V64.5471V63.1098V61.6725V60.2352V58.798V57.3607V55.9234H7.84186V57.3607H6.4043V55.9234V54.4861V53.0488H7.84186H9.27942H10.717H12.1545H13.5921H15.0297V54.4861V55.9234V57.3607C15.0297 57.3607 13.5921 57.3607 13.5921 57.3607Z" fill="black"/>
<path d="M24.8306 67.291H23.393H21.9554H20.5179H19.0803V65.8537H17.7734V64.4164V62.9791V61.5418V60.1045V58.6673H19.211V57.23H20.6486H22.0861H23.5237H24.9612H26.3988V58.6673H27.8364V60.1045V61.5418V62.9791V64.4164V65.8537H26.3988V67.291H24.8306V67.291ZM23.5237 65.8537H24.9612V64.4164V62.9791V61.5418V60.1045V58.6673H23.5237H22.0861H20.6486V60.1045V61.5418V62.9791V64.4164V65.8537H22.0861H23.5237V65.8537Z" fill="black"/>
<path d="M36.2016 71.4721H34.764H33.4572H32.0196H30.582V70.0349H32.0196H33.4572H34.764H36.2016V68.7282H37.6391V67.291H36.2016H34.764H33.4572H32.0196V65.8537H30.582V64.4164V62.9791V61.5418V60.1045V58.6673V57.23H32.0196H33.4572V58.6673V60.1045V61.5418V62.9791V64.4164V65.8537H34.764H36.2016H37.6391V64.4164V62.9791V61.5418V60.1045V58.6673V57.23H39.0767H40.5143V58.6673V60.1045V61.5418V62.9791V64.4164V65.8537V67.291V68.7282H39.0767V70.1655H37.6391V71.6028L36.2016 71.4721Z" fill="black"/>
<path d="M49.0079 67.2911H47.5703V65.8538V64.4165H49.0079H50.4454V65.8538V67.2911H49.0079Z" fill="black"/>
<path d="M63.1233 67.291H61.6858H60.2482H58.8107H57.3731V65.8537H55.9355V64.4164V62.9791H57.3731H58.8107V64.4164V65.8537H60.2482H61.6858H63.1233V64.4164V62.9791V61.5419H61.6858V60.1046H60.2482H58.8107V58.6673H57.3731V57.23H55.9355V55.7927V54.3554H57.3731V53.0488H58.8107H60.2482H61.6858H63.1233H64.5609V54.4861H65.9985V55.9234V57.3607H64.5609H63.1233V55.9234V54.4861H61.6858H60.2482H58.8107V55.9234V57.3607H60.2482V58.798H61.6858H63.1233V60.2352H64.5609V61.6725H65.9985V63.1098V64.5471V65.9844H64.5609V67.4216L63.1233 67.291Z" fill="black"/>
<path d="M75.93 67.291H74.4924H73.0549V65.8537H71.6173V64.4164V62.9791V61.5419V60.1046V58.6673H70.1798H68.7422V57.23H70.1798H71.6173V55.7927V54.3554H73.0549V53.0488H74.4924V54.4861V55.9234V57.3607H75.93H77.3676V58.798H75.93H74.4924V60.2352V61.6725V63.1098V64.5471V65.9844H75.93V64.5471H77.3676H78.8051V65.9844H77.3676V67.4216L75.93 67.291Z" fill="black"/>
<path d="M85.8615 67.291H84.4239H82.9864H81.5488V65.8537H82.9864V64.4164V62.9791V61.5418V60.1045V58.6673H81.5488V57.23H82.9864H84.4239V58.6673H85.8615V57.23H87.2991H88.7366H90.1742V58.6673H91.6117V60.1045V61.5418H90.1742H88.7366V60.1045V58.6673H87.2991V60.1045H85.8615V61.5418V62.9791V64.4164V65.8537H87.2991V67.291H85.8615V67.291Z" fill="black"/>
<path d="M101.414 67.291H99.9768H98.5392H97.1017H95.6641V65.8537H94.2266V64.4164V62.9791V61.5418V60.1045V58.6673H95.6641V57.23H97.1017H98.5392H99.9768H101.414H102.852V58.6673H104.289V60.1045V61.5418H102.852H101.414H99.9768H98.5392H97.1017V62.9791V64.4164V65.8537H98.5392H99.9768H101.414V64.4164H102.852H104.289V65.8537H102.852V67.291H101.414V67.291ZM99.9768 60.2352H101.414V58.7979H99.9768H98.5392H97.1017V60.2352H98.5392H99.9768Z" fill="black"/>
<path d="M115.659 67.291H114.221V65.8537H112.783V64.4164V62.9791V61.5418H111.346H109.908V62.9791V64.4164V65.8537H111.346H112.783V67.291H111.346H109.908H108.471V65.8537H107.033V64.4164V62.9791V61.5418H108.471V60.1045H109.908H111.346H112.783V58.6673H111.346H109.908H108.471V57.23H109.908H111.346H112.783H114.221V58.6673H115.659V60.1045V61.5418V62.9791V64.4164V65.8537H117.096V67.291H115.659V67.291Z" fill="black"/>
<path d="M124.154 65.8537V64.4164V62.9791V61.5418V60.1045H122.717V61.5418V62.9791V64.4164V65.8537V67.291H121.279H119.842V65.8537V64.4164V62.9791V61.5418V60.1045V58.6673V57.23H121.279H122.717H124.154V58.6673H125.592V57.23H127.03H128.467V58.6673H129.905V60.1045V61.5418V62.9791V64.4164V65.8537V67.291H128.467H127.03V65.8537V64.4164V62.9791V61.5418V60.1045H125.592V61.5418V62.9791V64.4164V65.8537H124.154V65.8537Z" fill="black"/>
</g>
<defs>
<clipPath id="clip0_10_1320">
<rect width="135" height="75" fill="white"/>
</clipPath>
</defs>
</svg>
