<svg width="32" height="32" viewBox="0 0 32 32" fill="none" xmlns="http://www.w3.org/2000/svg">
<path fill-rule="evenodd" clip-rule="evenodd" d="M4.66667 16C4.66748 13.5887 5.43734 11.2405 6.86435 9.29678C8.29135 7.35305 10.3011 5.91513 12.6014 5.19205C14.9018 4.46896 17.3728 4.49841 19.6552 5.2761C21.9377 6.05379 23.9126 7.5392 25.2929 9.51637C26.6732 11.4935 27.3869 13.8594 27.3302 16.2701C27.2736 18.6807 26.4495 21.0104 24.9779 22.9206C23.5063 24.8308 21.4637 26.2218 19.1473 26.8914C16.8308 27.561 14.3612 27.4743 12.0973 26.644C12.8666 24.5821 13.6128 22.5118 14.336 20.4333C15.1013 20.98 16.0893 21.3333 17.3333 21.3333C19.9133 21.3333 22.6333 19.6333 23.3067 16.2613C24.156 12.028 20.7653 8 16 8C13.996 8 12.0253 8.80533 10.5507 10.0827C9.07333 11.364 8 13.2093 8 15.3333C8 16.3667 8.312 17.5173 9.05467 18.2747C9.30634 18.5224 9.64525 18.6613 9.99839 18.6616C10.3515 18.6618 10.6906 18.5234 10.9427 18.276C11.1877 18.0311 11.3279 17.7004 11.3333 17.3539C11.3388 17.0075 11.2092 16.6725 10.972 16.42C9.924 15.1133 11.3053 12.9587 12.2973 12.0987C13.328 11.2053 14.6893 10.6667 16 10.6667C19.236 10.6667 21.1787 13.3053 20.6933 15.7387C20.288 17.7573 18.752 18.6667 17.3333 18.6667C16.2427 18.6667 15.656 18.2067 15.28 17.6107C15.4853 16.9653 15.66 16.3787 15.7853 15.9013C16.0413 14.9187 16.196 13.7333 15.312 12.996C14.6547 12.4493 13.8787 12.5693 13.404 12.808C12.52 13.248 12 14.28 12 15.3333C12 15.9213 12.092 16.8333 12.4227 17.776C11.5623 20.3421 10.6563 22.8927 9.70533 25.4267C8.15419 24.3918 6.88264 22.9898 6.00363 21.3453C5.12463 19.7008 4.66537 17.8647 4.66667 16ZM16 2C8.268 2 2 8.268 2 16C2 23.732 8.268 30 16 30C23.732 30 30 23.732 30 16C30 8.268 23.732 2 16 2Z" fill="#C4B6B6"/>
</svg>
