<svg width="32" height="32" viewBox="0 0 32 32" fill="none" xmlns="http://www.w3.org/2000/svg">
<path fill-rule="evenodd" clip-rule="evenodd" d="M9.66351 5.4265C11.2395 3.5545 13.4715 2.6665 15.9995 2.6665C18.5862 2.6665 20.8048 3.71184 22.3515 5.61717C23.7248 7.3105 24.5022 9.59584 24.6435 12.2532L24.7662 12.2718L24.7928 12.2758C25.0195 12.3078 25.2902 12.3478 25.5715 12.4025C26.6128 12.6038 28.3902 13.1132 29.0022 15.0212C29.3088 15.9798 29.1555 16.8678 28.6182 17.5718C28.1555 18.1785 27.4942 18.5292 27.0208 18.7412C26.7862 18.8478 26.5515 18.9385 26.3542 19.0145C26.8155 20.2625 27.6182 21.5465 28.5062 22.7092C29.3422 23.8052 29.1208 25.1932 28.6888 26.0985C28.2555 27.0052 27.3195 28.0412 25.9568 28.0998C25.1862 28.1332 24.3768 28.2132 23.5715 28.3598C23.2075 28.4265 22.7782 28.5718 22.2448 28.7918C21.9262 28.9225 21.6342 29.0532 21.3195 29.1932C21.0688 29.3052 20.8048 29.4225 20.4995 29.5532C19.2462 30.0918 17.7062 30.6665 15.9995 30.6665C14.2928 30.6665 12.7528 30.0918 11.4995 29.5532C11.1942 29.4225 10.9288 29.3052 10.6795 29.1932C10.373 29.0551 10.0645 28.9213 9.75418 28.7918C9.22084 28.5718 8.79151 28.4252 8.42751 28.3585C7.62218 28.2118 6.81284 28.1332 6.04084 28.0998C4.67951 28.0412 3.74218 27.0052 3.31018 26.0985C2.87818 25.1932 2.65684 23.8052 3.49284 22.7092C4.38618 21.5385 5.19284 20.2452 5.65284 18.9892C5.451 18.9098 5.25137 18.8248 5.05418 18.7345C4.59284 18.5185 3.96618 18.1732 3.50351 17.5945C2.98751 16.9465 2.75951 16.1105 2.96218 15.1532C3.39418 13.1038 5.32218 12.5932 6.34084 12.4012C6.63018 12.3478 6.91151 12.3078 7.14751 12.2745L7.19418 12.2678L7.35418 12.2452C7.48618 9.41184 8.25818 7.0945 9.66351 5.4265V5.4265ZM11.7035 7.14384C10.6862 8.3505 9.99951 10.2905 9.99951 13.1438V13.2825L9.97018 13.4198C9.82218 14.1185 9.28484 14.4452 9.01818 14.5705C8.73818 14.7025 8.43551 14.7678 8.22218 14.8078C8.01418 14.8465 7.78218 14.8785 7.57551 14.9065L7.51418 14.9158C7.28625 14.946 7.05908 14.9816 6.83284 15.0225C5.81284 15.2132 5.61951 15.4665 5.57018 15.7025C5.53551 15.8718 5.56618 15.9065 5.58351 15.9252L5.58884 15.9305C5.65951 16.0198 5.83018 16.1532 6.18484 16.3185C6.35018 16.3958 6.52484 16.4665 6.71818 16.5452L6.76618 16.5638C6.93551 16.6305 7.13684 16.7118 7.31418 16.7958C7.48884 16.8758 7.78084 17.0225 8.02884 17.2598C8.31684 17.5358 8.66484 18.0745 8.49551 18.7852C8.01018 20.8265 6.78484 22.7918 5.61418 24.3252C5.59637 24.37 5.58907 24.4184 5.59284 24.4665C5.59284 24.5932 5.62884 24.7665 5.71551 24.9492C5.80351 25.1318 5.91551 25.2718 6.01951 25.3558C6.10484 25.4252 6.15284 25.4358 6.15818 25.4358C7.02618 25.4732 7.95818 25.5638 8.90484 25.7358C9.54884 25.8532 10.1848 26.0852 10.7715 26.3278C11.0955 26.4612 11.4675 26.6265 11.8288 26.7865C12.0808 26.8985 12.3275 27.0078 12.5488 27.1025C13.7475 27.6158 14.8662 27.9998 15.9995 27.9998C17.1328 27.9998 18.2528 27.6158 19.4502 27.1025C19.6715 27.0078 19.9182 26.8972 20.1702 26.7865C20.5302 26.6265 20.9035 26.4612 21.2262 26.3278C21.8128 26.0852 22.4488 25.8532 23.0928 25.7358C24.0395 25.5625 24.9728 25.4732 25.8395 25.4358C25.8475 25.4358 25.8942 25.4252 25.9795 25.3558C26.1084 25.2433 26.2121 25.1047 26.2835 24.9492C26.3583 24.7989 26.4001 24.6343 26.4062 24.4665C26.4062 24.3425 26.3755 24.3132 26.3862 24.3278C25.2155 22.7945 23.9888 20.8278 23.5022 18.7852C23.3222 18.0252 23.7342 17.4785 24.0182 17.2252C24.2715 17.0012 24.5675 16.8612 24.7475 16.7825C24.9275 16.7025 25.1302 16.6265 25.3035 16.5612L25.3675 16.5358C25.5715 16.4598 25.7542 16.3892 25.9262 16.3105C26.2862 16.1492 26.4395 16.0252 26.4915 15.9625C26.4868 15.9194 26.4774 15.8769 26.4635 15.8358C26.3422 15.4572 25.9995 15.2012 25.0635 15.0198C24.8515 14.9798 24.6368 14.9478 24.4102 14.9132L24.3595 14.9065C24.1485 14.8779 23.9382 14.8441 23.7288 14.8052C23.4573 14.7576 23.1932 14.6742 22.9435 14.5572C22.6635 14.4185 22.1702 14.0865 22.0288 13.4198L21.9995 13.2825V13.1425C21.9995 10.5425 21.3235 8.5825 20.2808 7.2985C19.2608 6.03984 17.8142 5.33317 15.9995 5.33317C14.1262 5.33317 12.6928 5.96784 11.7022 7.14384H11.7035Z" fill="#C4B6B6"/>
</svg>
